<?xml version="1.0" standalone="no"?><svg xmlns="http://www.w3.org/2000/svg" viewBox="0 0 1440 320"><path fill="#00aef2" fill-opacity="1" d="M0,224L34.3,229.3C68.6,235,137,245,206,256C274.3,267,343,277,411,250.7C480,224,549,160,617,122.7C685.7,85,754,75,823,90.7C891.4,107,960,149,1029,160C1097.1,171,1166,149,1234,122.7C1302.9,96,1371,64,1406,48L1440,32L1440,0L1405.7,0C1371.4,0,1303,0,1234,0C1165.7,0,1097,0,1029,0C960,0,891,0,823,0C754.3,0,686,0,617,0C548.6,0,480,0,411,0C342.9,0,274,0,206,0C137.1,0,69,0,34,0L0,0Z"></path></svg>